<svg width="54" height="54" viewBox="0 0 54 54" fill="none" xmlns="http://www.w3.org/2000/svg">
<path d="M27 1C12.6406 1 1 12.6406 1 27C1 32.1242 2.48365 36.9014 5.04297 40.9277L1.20898 50.1787C0.52689 51.825 2.17502 53.4731 3.82129 52.791L13.0723 48.957C17.0986 51.5163 21.8758 53 27 53C41.3594 53 53 41.3594 53 27C53 12.6406 41.3594 1 27 1Z" fill="white"/>
<path d="M5.04297 40.9277L5.88691 40.3913L6.16588 40.8302L5.96677 41.3106L5.04297 40.9277ZM1.20898 50.1787L0.285141 49.7959L0.285179 49.7958L1.20898 50.1787ZM3.82129 52.791L4.20415 53.7148L4.20406 53.7149L3.82129 52.791ZM13.0723 48.957L12.6894 48.0332L13.1698 47.8341L13.6087 48.1131L13.0723 48.957ZM27 1V2C13.1929 2 2 13.1929 2 27H1H0C0 12.0883 12.0883 0 27 0V1ZM1 27H2C2 31.9284 3.42638 36.5204 5.88691 40.3913L5.04297 40.9277L4.19903 41.4642C1.54093 37.2824 0 32.32 0 27H1ZM5.04297 40.9277L5.96677 41.3106L2.13279 50.5616L1.20898 50.1787L0.285179 49.7958L4.11916 40.5449L5.04297 40.9277ZM1.20898 50.1787L2.13283 50.5615C1.79178 51.3846 2.61539 52.2082 3.43851 51.8672L3.82129 52.791L4.20406 53.7149C1.73465 54.738 -0.738003 52.2653 0.285141 49.7959L1.20898 50.1787ZM3.82129 52.791L3.43843 51.8672L12.6894 48.0332L13.0723 48.957L13.4551 49.8808L4.20415 53.7148L3.82129 52.791ZM13.0723 48.957L13.6087 48.1131C17.4796 50.5736 22.0716 52 27 52V53V54C21.68 54 16.7176 52.4591 12.5358 49.801L13.0723 48.957ZM27 53V52C40.8071 52 52 40.8071 52 27H53H54C54 41.9117 41.9117 54 27 54V53ZM53 27H52C52 13.1929 40.8071 2 27 2V1V0C41.9117 0 54 12.0883 54 27H53Z" fill="#FF6453"/>
<path d="M28.99 18.1998C29.0179 17.9217 28.9872 17.6408 28.8999 17.3753C28.8126 17.1098 28.6707 16.8655 28.4832 16.6583C28.2957 16.451 28.0668 16.2853 27.8113 16.172C27.5559 16.0586 27.2795 16 27 16C26.7205 16 26.4441 16.0586 26.1887 16.172C25.9332 16.2853 25.7043 16.451 25.5168 16.6583C25.3293 16.8655 25.1874 17.1098 25.1001 17.3753C25.0128 17.6408 24.9821 17.9217 25.01 18.1998L25.786 30.8999C25.816 31.2011 25.9568 31.4803 26.1812 31.6835C26.4055 31.8866 26.6974 31.9991 27 31.9991C27.3026 31.9991 27.5945 31.8866 27.8188 31.6835C28.0432 31.4803 28.184 31.2011 28.214 30.8999L28.99 18.1998ZM29 36C29 35.4695 28.7893 34.9608 28.4142 34.5857C28.0391 34.2107 27.5304 34 27 34C26.4696 34 25.9609 34.2107 25.5858 34.5857C25.2107 34.9608 25 35.4695 25 36C25 36.5304 25.2107 37.0391 25.5858 37.4142C25.9609 37.7893 26.4696 38 27 38C27.5304 38 28.0391 37.7893 28.4142 37.4142C28.7893 37.0391 29 36.5304 29 36Z" fill="#FF6453"/>
</svg>
