<svg width="54" height="54" viewBox="0 0 54 54" fill="none" xmlns="http://www.w3.org/2000/svg">
<path d="M27 1C41.3594 1 53 12.6406 53 27C53 32.1242 51.5163 36.9014 48.957 40.9277L52.791 50.1787C53.4731 51.825 51.825 53.4731 50.1787 52.791L40.9277 48.957C36.9014 51.5163 32.1242 53 27 53C12.6406 53 1 41.3594 1 27C1 12.6406 12.6406 1 27 1Z" fill="white"/>
<path d="M48.957 40.9277L48.1131 40.3913L47.8341 40.8302L48.0332 41.3106L48.957 40.9277ZM52.791 50.1787L53.7149 49.7959L53.7148 49.7958L52.791 50.1787ZM50.1787 52.791L49.7958 53.7148L49.7959 53.7149L50.1787 52.791ZM40.9277 48.957L41.3106 48.0332L40.8302 47.8341L40.3913 48.1131L40.9277 48.957ZM27 1V2C40.8071 2 52 13.1929 52 27H53H54C54 12.0883 41.9117 0 27 0V1ZM53 27H52C52 31.9284 50.5736 36.5204 48.1131 40.3913L48.957 40.9277L49.801 41.4642C52.4591 37.2824 54 32.32 54 27H53ZM48.957 40.9277L48.0332 41.3106L51.8672 50.5616L52.791 50.1787L53.7148 49.7958L49.8808 40.5449L48.957 40.9277ZM52.791 50.1787L51.8672 50.5615C52.2082 51.3846 51.3846 52.2082 50.5615 51.8672L50.1787 52.791L49.7959 53.7149C52.2654 54.738 54.738 52.2653 53.7149 49.7959L52.791 50.1787ZM50.1787 52.791L50.5616 51.8672L41.3106 48.0332L40.9277 48.957L40.5449 49.8808L49.7958 53.7148L50.1787 52.791ZM40.9277 48.957L40.3913 48.1131C36.5204 50.5736 31.9284 52 27 52V53V54C32.32 54 37.2824 52.4591 41.4642 49.801L40.9277 48.957ZM27 53V52C13.1929 52 2 40.8071 2 27H1H0C0 41.9117 12.0883 54 27 54V53ZM1 27H2C2 13.1929 13.1929 2 27 2V1V0C12.0883 0 0 12.0883 0 27H1Z" fill="#FF6453"/>
<path d="M25.01 18.1998C24.9821 17.9217 25.0128 17.6408 25.1001 17.3753C25.1874 17.1098 25.3293 16.8655 25.5168 16.6583C25.7043 16.451 25.9332 16.2853 26.1887 16.172C26.4441 16.0586 26.7205 16 27 16C27.2795 16 27.5559 16.0586 27.8113 16.172C28.0668 16.2853 28.2957 16.451 28.4832 16.6583C28.6707 16.8655 28.8126 17.1098 28.8999 17.3753C28.9872 17.6408 29.0179 17.9217 28.99 18.1998L28.214 30.8999C28.184 31.2011 28.0432 31.4803 27.8188 31.6835C27.5945 31.8866 27.3026 31.9991 27 31.9991C26.6974 31.9991 26.4055 31.8866 26.1812 31.6835C25.9568 31.4803 25.816 31.2011 25.786 30.8999L25.01 18.1998ZM25 36C25 35.4695 25.2107 34.9608 25.5858 34.5857C25.9609 34.2107 26.4696 34 27 34C27.5304 34 28.0391 34.2107 28.4142 34.5857C28.7893 34.9608 29 35.4695 29 36C29 36.5304 28.7893 37.0391 28.4142 37.4142C28.0391 37.7893 27.5304 38 27 38C26.4696 38 25.9609 37.7893 25.5858 37.4142C25.2107 37.0391 25 36.5304 25 36Z" fill="#FF6453"/>
</svg>
